HIERARCHY
ROOT hip
{
  OFFSET 0 0 0
  CHANNELS 6 Xposition Yposition Zposition Zrotation Yrotation Xrotation
  JOINT abdomen
  {
    OFFSET 0 20.6881 -0.73152
    CHANNELS 3 Zrotation Xrotation Yrotation
    JOINT chest
    {
      OFFSET 0 11.7043 -0.48768
      CHANNELS 3 Zrotation Xrotation Yrotation
      JOINT neck
      {
        OFFSET 0 22.1894 -2.19456
        CHANNELS 3 Zrotation Xrotation Yrotation
        JOINT head
        {
          OFFSET -0.24384 7.07133 1.2192
          CHANNELS 3 Zrotation Xrotation Yrotation
          JOINT leftEye
          {
            OFFSET 4.14528 8.04674 8.04672
            CHANNELS 3 Zrotation Xrotation Yrotation
            End Site
            {
              OFFSET 1 0 0
            }
          }
          JOINT rightEye
          {
            OFFSET -3.6576 8.04674 8.04672
            CHANNELS 3 Zrotation Xrotation Yrotation
            End Site
            {
              OFFSET 1 0 0
            }
          }
        }
      }
      JOINT rCollar
      {
        OFFSET -2.68224 19.2634 -4.8768
        CHANNELS 3 Zrotation Xrotation Yrotation
        JOINT rShldr
        {
          OFFSET -8.77824 -1.95073 1.46304
          CHANNELS 3 Zrotation Xrotation Yrotation
          JOINT rForeArm
          {
            OFFSET -28.1742 -1.7115 0.48768
            CHANNELS 3 Zrotation Xrotation Yrotation
            JOINT rHand
            {
              OFFSET -22.5879 0.773209 7.07136
              CHANNELS 3 Zrotation Xrotation Yrotation
              JOINT rThumb1
              {
                OFFSET -1.2192 -0.487915 3.41376
                CHANNELS 3 Zrotation Xrotation Yrotation
                JOINT rThumb2
                {
                  OFFSET -3.37035 -0.52449 3.41376
                  CHANNELS 3 Zrotation Xrotation Yrotation
                  End Site
                  {
                    OFFSET -1.78271 -1.18214 1.43049
                  }
                }
              }
              JOINT rIndex1
              {
                OFFSET -7.75947 0.938293 5.60832
                CHANNELS 3 Zrotation Xrotation Yrotation
                JOINT rIndex2
                {
                  OFFSET -2.54057 -0.884171 1.56538
                  CHANNELS 3 Zrotation Xrotation Yrotation
                  End Site
                  {
                    OFFSET -1.62519 -0.234802 1.16502
                  }
                }
              }
              JOINT rMid1
              {
                OFFSET -8.24714 1.18213 3.41376
                CHANNELS 3 Zrotation Xrotation Yrotation
                JOINT rMid2
                {
                  OFFSET -3.10165 -0.590103 1.0647
                  CHANNELS 3 Zrotation Xrotation Yrotation
                  End Site
                  {
                    OFFSET -2.48547 -0.328903 0.83742
                  }
                }
              }
              JOINT rRing1
              {
                OFFSET -8.82822 0.546677 1.51678
                CHANNELS 3 Zrotation Xrotation Yrotation
                JOINT rRing2
                {
                  OFFSET -2.60934 -0.819778 -0.0198488
                  CHANNELS 3 Zrotation Xrotation Yrotation
                  End Site
                  {
                    OFFSET -2.33842 -0.294052 0.168128
                  }
                }
              }
              JOINT rPinky1
              {
                OFFSET -8.27202 -0.0477905 -0.4584
                CHANNELS 3 Zrotation Xrotation Yrotation
                JOINT rPinky2
                {
                  OFFSET -1.82734 -0.647385 -0.700984
                  CHANNELS 3 Zrotation Xrotation Yrotation
                  End Site
                  {
                    OFFSET -1.69225 -0.51767 -0.607171
                  }
                }
              }
            }
          }
        }
      }
      JOINT lCollar
      {
        OFFSET 2.68224 19.2634 -4.8768
        CHANNELS 3 Zrotation Xrotation Yrotation
        JOINT lShldr
        {
          OFFSET 8.77824 -1.95073 1.46304
          CHANNELS 3 Zrotation Xrotation Yrotation
          JOINT lForeArm
          {
            OFFSET 28.1742 -1.7115 0.48768
            CHANNELS 3 Zrotation Xrotation Yrotation
            JOINT lHand
            {
              OFFSET 22.5879 0.773209 7.07136
              CHANNELS 3 Zrotation Xrotation Yrotation
              JOINT lThumb1
              {
                OFFSET 1.2192 -0.487915 3.41376
                CHANNELS 3 Zrotation Xrotation Yrotation
                JOINT lThumb2
                {
                  OFFSET 3.37035 -0.52449 3.41376
                  CHANNELS 3 Zrotation Xrotation Yrotation
                  End Site
                  {
                    OFFSET 1.78271 -1.18214 1.43049
                  }
                }
              }
              JOINT lIndex1
              {
                OFFSET 7.75947 0.938293 5.60832
                CHANNELS 3 Zrotation Xrotation Yrotation
                JOINT lIndex2
                {
                  OFFSET 2.54057 -0.884171 1.56538
                  CHANNELS 3 Zrotation Xrotation Yrotation
                  End Site
                  {
                    OFFSET 1.62519 -0.234802 1.16502
                  }
                }
              }
              JOINT lMid1
              {
                OFFSET 8.24714 1.18213 3.41376
                CHANNELS 3 Zrotation Xrotation Yrotation
                JOINT lMid2
                {
                  OFFSET 3.10165 -0.590103 1.0647
                  CHANNELS 3 Zrotation Xrotation Yrotation
                  End Site
                  {
                    OFFSET 2.48547 -0.328903 0.83742
                  }
                }
              }
              JOINT lRing1
              {
                OFFSET 8.82822 0.546677 1.51678
                CHANNELS 3 Zrotation Xrotation Yrotation
                JOINT lRing2
                {
                  OFFSET 2.60934 -0.819778 -0.0198488
                  CHANNELS 3 Zrotation Xrotation Yrotation
                  End Site
                  {
                    OFFSET 2.33842 -0.294052 0.168128
                  }
                }
              }
              JOINT lPinky1
              {
                OFFSET 8.27202 -0.0477905 -0.4584
                CHANNELS 3 Zrotation Xrotation Yrotation
                JOINT lPinky2
                {
                  OFFSET 1.82734 -0.647385 -0.700984
                  CHANNELS 3 Zrotation Xrotation Yrotation
                  End Site
                  {
                    OFFSET 1.69225 -0.51767 -0.607171
                  }
                }
              }
            }
          }
        }
      }
    }
  }
  JOINT rButtock
  {
    OFFSET -8.77824 4.35084 1.2192
    CHANNELS 3 Zrotation Xrotation Yrotation
    JOINT rThigh
    {
      OFFSET 0 -1.70687 -2.19456
      CHANNELS 3 Zrotation Xrotation Yrotation
      JOINT rShin
      {
        OFFSET 0 -36.8199 0.73152
        CHANNELS 3 Zrotation Xrotation Yrotation
        JOINT rFoot
        {
          OFFSET 0.73152 -45.1104 -5.12064
          CHANNELS 3 Zrotation Xrotation Yrotation
          End Site
          {
            OFFSET -1.1221 -3.69964 12.103
          }
        }
      }
    }
  }
  JOINT lButtock
  {
    OFFSET 8.77824 4.35084 1.2192
    CHANNELS 3 Zrotation Xrotation Yrotation
    JOINT lThigh
    {
      OFFSET 0 -1.70687 -2.19456
      CHANNELS 3 Zrotation Xrotation Yrotation
      JOINT lShin
      {
        OFFSET 0 -36.8199 0.73152
        CHANNELS 3 Zrotation Xrotation Yrotation
        JOINT lFoot
        {
          OFFSET -0.73152 -45.1104 -5.12064
          CHANNELS 3 Zrotation Xrotation Yrotation
          End Site
          {
            OFFSET 1.1221 -3.69964 12.103
          }
        }
      }
    }
  }
}
MOTION
Frames:	4
Frame Time:	0.00833333
22.5927 80.4567 170.566 31.9513 -84.8039 37.0235 3.4945 16.1735 9.71216 1.54282 2.63 2.72361 11.7146 3.09461 8.84771 2.02725 6.45028 12.6035 -0.0 0.0 0.0 -0.0 0.0 0.0 -5.53722e-14 5.01286e-13 -1.62059e-13 3.92927 62.8903 61.559 -28.2305 -32.2318 70.8264 -4.81452 -51.1353 -10.0434 5.70145e-09 1.21628e-09 2.33693e-09 9.71182e-09 2.90861e-09 4.25839e-09 5.70146e-09 1.21627e-09 2.33693e-09 7.73091 5.47488 0.417314 5.70145e-09 1.21627e-09 2.33693e-09 2.90554 0.965183 0.102902 5.70146e-09 1.21627e-09 2.33693e-09 10.2786 0.731801 0.0259123 5.70145e-09 1.21627e-09 2.33693e-09 2.22167 -0.733487 -0.20892 -5.55533e-14 5.01284e-13 -1.62308e-13 -68.62 29.2304 14.643 17.3775 -10.0328 -32.6384 6.0645 -55.0616 11.6056 1.65311e-09 1.50431e-09 -1.33138e-11 2.85641e-09 2.73635e-09 5.48065e-11 1.6531e-09 1.50431e-09 -1.32852e-11 -7.73091 5.47488 -0.417314 1.6531e-09 1.50431e-09 -1.33043e-11 -2.90554 0.965183 -0.102902 1.6531e-09 1.50432e-09 -1.33043e-11 -10.2786 0.731801 -0.0259123 1.6531e-09 1.50432e-09 -1.33106e-11 -2.22167 -0.733487 0.20892 -2.03217e-16 0.0 -3.88251e-19 95.6782 -83.0707 115.09 -0.149719 26.8185 0.539433 -3.03821 1.72495 -19.2772 2.03217e-16 0.0 3.88251e-19 19.0004 -10.7305 0.202404 -0.0909126 9.41579 -0.884823 0.910825 1.13286 -0.130639
22.6079 80.4613 170.544 32.073 -84.7748 37.1474 3.53028 16.3723 9.65849 1.53093 2.60667 2.70841 11.7233 3.10272 8.85608 1.96345 6.2955 12.6348 -0.0 0.0 0.0 -0.0 0.0 0.0 -1.05271e-13 2.34888e-13 -1.43394e-13 3.98854 62.8853 61.5368 -28.2276 -32.2112 70.7963 -4.81857 -51.1496 -10.0486 5.73442e-09 4.30417e-10 2.0796e-09 9.77827e-09 1.53482e-09 3.81676e-09 5.73443e-09 4.30412e-10 2.0796e-09 7.73091 5.47488 0.417314 5.73442e-09 4.30406e-10 2.0796e-09 2.90554 0.965183 0.102902 5.73443e-09 4.30414e-10 2.0796e-09 10.2786 0.731801 0.0259123 5.73442e-09 4.30413e-10 2.07961e-09 2.22167 -0.733487 -0.20892 -1.05447e-13 2.34886e-13 -1.43647e-13 -68.5314 29.4023 14.5165 17.4079 -10.064 -32.705 6.11815 -55.2106 11.671 1.91354e-09 1.73815e-09 5.93355e-12 3.30326e-09 3.15391e-09 1.00475e-10 1.91354e-09 1.73815e-09 5.95797e-12 -7.73091 5.47488 -0.417314 1.91354e-09 1.73815e-09 5.94185e-12 -2.90554 0.965183 -0.102902 1.91353e-09 1.73815e-09 5.94142e-12 -10.2786 0.731801 -0.0259123 1.91354e-09 1.73815e-09 5.93621e-12 -2.22167 -0.733487 0.20892 -2.03217e-16 0.0 -3.88251e-19 97.7819 -83.0546 117.183 -0.149284 26.8274 0.541173 -3.0479 1.69745 -19.2679 2.03217e-16 0.0 3.88251e-19 19.0059 -10.7433 0.201924 -0.0904928 9.41178 -0.881174 0.908457 1.14934 -0.130743
22.6203 80.4645 170.525 32.1554 -84.7429 37.2983 3.58273 16.5676 9.58311 1.51512 2.58398 2.68788 11.7159 3.11428 8.87044 1.91638 6.13913 12.6799 -0.0 0.0 0.0 -0.0 0.0 0.0 -1.84449e-13 -1.92281e-13 -1.31241e-13 3.96318 62.8747 61.6086 -28.2238 -32.1847 70.7579 -4.81787 -51.1471 -10.0477 5.62932e-09 -8.56467e-10 1.6074e-09 9.61553e-09 -7.33973e-10 2.99949e-09 5.62932e-09 -8.56472e-10 1.60739e-09 7.73091 5.47488 0.417314 5.62932e-09 -8.56476e-10 1.60739e-09 2.90554 0.965183 0.102902 5.62932e-09 -8.56466e-10 1.60739e-09 10.2786 0.731801 0.0259123 5.62932e-09 -8.56467e-10 1.6074e-09 2.22167 -0.733487 -0.20892 -1.84604e-13 -1.92281e-13 -1.31496e-13 -68.4331 29.5652 14.4033 17.4415 -10.0986 -32.7789 6.18516 -55.3945 11.7524 2.28097e-09 2.0681e-09 3.19409e-11 3.93343e-09 3.74169e-09 1.63009e-10 2.28096e-09 2.06811e-09 3.1957e-11 -7.73091 5.47488 -0.417314 2.28097e-09 2.0681e-09 3.19453e-11 -2.90554 0.965183 -0.102902 2.28096e-09 2.06811e-09 3.19444e-11 -10.2786 0.731801 -0.0259123 2.28097e-09 2.0681e-09 3.19403e-11 -2.22167 -0.733487 0.20892 -2.03217e-16 0.0 -3.88251e-19 99.7923 -83.0349 119.176 -0.148757 26.84 0.543473 -3.05794 1.66781 -19.2585 2.03217e-16 0.0 3.88251e-19 19.0109 -10.7557 0.201498 -0.0901184 9.40866 -0.877926 0.906324 1.1645 -0.130843
22.631 80.4676 170.507 32.256 -84.7114 37.4193 3.64333 16.7605 9.49469 1.49705 2.561 2.66417 11.7032 3.12193 8.8884 1.86951 5.99697 12.7312 -0.0 0.0 0.0 -0.0 0.0 0.0 -2.56473e-13 -5.99208e-13 -1.25752e-13 3.8706 62.8603 61.748 -28.2202 -32.1595 70.7216 -4.8186 -51.1497 -10.0486 5.33243e-09 -2.04335e-09 1.10452e-09 9.12426e-09 -2.85277e-09 2.1215e-09 5.33243e-09 -2.04336e-09 1.10452e-09 7.73091 5.47488 0.417314 5.33242e-09 -2.04336e-09 1.10452e-09 2.90554 0.965183 0.102902 5.33243e-09 -2.04335e-09 1.10452e-09 10.2786 0.731801 0.0259123 5.33243e-09 -2.04335e-09 1.10453e-09 2.22167 -0.733487 -0.20892 -2.56603e-13 -5.99207e-13 -1.26005e-13 -68.3262 29.7185 14.2969 17.476 -10.1342 -32.855 6.26298 -55.6053 11.8469 2.54279e-09 2.31999e-09 7.05933e-11 4.38096e-09 4.18672e-09 2.4236e-10 2.5428e-09 2.32e-09 7.0601e-11 -7.73091 5.47488 -0.417314 2.5428e-09 2.31999e-09 7.05931e-11 -2.90554 0.965183 -0.102902 2.54279e-09 2.32e-09 7.0592e-11 -10.2786 0.731801 -0.0259123 2.5428e-09 2.31999e-09 7.05889e-11 -2.22167 -0.733487 0.20892 -2.03217e-16 0.0 -3.88251e-19 101.692 -83.0101 121.056 -0.148215 26.8541 0.54594 -3.06709 1.64029 -19.2487 2.03217e-16 0.0 3.88251e-19 19.0154 -10.7676 0.201112 -0.0897761 9.40612 -0.87496 0.904345 1.17856 -0.130935
